# xmcd
#
# Track frame offsets:
#       150
#       15565
#       29460
#       41000
#       53255
#       67262
#       84432
#       96397
#       109467
#       123042
#       136315
#       148357
#
# Disc length: 2126 seconds
#
# Revision: 1
# Processed by: cddbd v1.5.1PL0 Copyright (c) Steve Scherf et al.
# Submitted via: MusiCat 1.1
#
DISCID=a8084c0c
DTITLE=Mary Stahl - It's been a long long time
DYEAR=1900
DGENRE=
TTITLE0=On a slow boat to China
TTITLE1=It's been a long, long time
TTITLE2=Daddy
TTITLE3=I'll never stop loving you
TTITLE4=Sugar (That sugar baby o'mine)
TTITLE5=Deep purple
TTITLE6=Baby love
TTITLE7=Mr. Sandman
TTITLE8=Cuddle up a little closer, Lovey mine
TTITLE9=Young at heart
TTITLE10=Says my heart
TTITLE11=Where the boys are
EXTD=Rhapsody Music Group\nRhapsody 5003\n
EXTT0=
EXTT1=
EXTT2=
EXTT3=
EXTT4=
EXTT5=
EXTT6=
EXTT7=
EXTT8=
EXTT9=
EXTT10=
EXTT11=
PLAYORDER=
